# xmcd
#
# Track frame offsets:
#	150
#	15183
#	33960
#	52738
#	74870
#	92928
#	108468
#	135390
#	151701
#	163397
#	180793
#	195717
#
# Disc length: 2890 seconds
#
# Revision: 1
# Processed by: cddbd v1.5.1PL0 Copyright (c) Steve Scherf et al.
# Submitted via: audiograbber 1.80.04
#
DISCID=910b480c
DTITLE=Carnes and the Heaters - Carnes and the Heaters
DYEAR=2005
DGENRE=
TTITLE0=Feeling the Music Brings
TTITLE1=Guilty
TTITLE2=Move too Soon
TTITLE3=It Ain't Gonna Worry My Mind
TTITLE4=Treat Me Right
TTITLE5=All Night Long
TTITLE6=St. Gabriel
TTITLE7=Don't Leave Home Without It
TTITLE8=Further On Up the Road
TTITLE9=At Last
TTITLE10=Louise
TTITLE11=Tupelo Honey
EXTD=
EXTT0=
EXTT1=
EXTT2=
EXTT3=
EXTT4=
EXTT5=
EXTT6=
EXTT7=
EXTT8=
EXTT9=
EXTT10=
EXTT11=
PLAYORDER=
